<svg width="168" height="272" viewBox="0 0 168 272" fill="none" xmlns="http://www.w3.org/2000/svg">
<path fill-rule="evenodd" clip-rule="evenodd" d="M-62.2394 255.942C-97.5098 218.163 -95.4917 162.352 -83.5933 114.326C-81.6068 106.308 -80.6884 97.6105 -75.3512 91.3366C-70.0142 85.0688 -60.0418 82.1225 -53.5481 87.0572C-48.1621 91.1501 -47.0327 98.6779 -44.9068 105.157C-42.0827 113.777 -36.7912 121.537 -29.8414 127.254C-25.2764 131.011 -19.2738 133.991 -13.6116 132.266C-5.84824 129.899 -2.98816 120.452 -1.33348 112.406C1.74923 97.4168 4.83135 82.4305 7.90975 67.4425C9.56486 59.4047 11.2783 51.1978 15.3902 44.1051C19.4984 37.0106 26.5088 31.1007 34.589 30.5779C42.6691 30.056 51.1619 36.4612 51.1047 44.664C51.0822 48.0764 49.6956 51.3316 49.2126 54.7126C48.7274 58.0942 49.4964 62.1097 52.4598 63.7085C55.4603 65.3308 59.1485 63.7352 62.0458 61.8902C72.0363 55.5388 79.8671 46.2839 87.3159 37.0078C94.7677 27.7322 102.117 18.1789 111.5 10.9251C120.88 3.67563 132.751 -1.12956 144.369 0.654052C155.986 2.43963 166.713 12.1324 167.217 24.0383C167.726 35.9799 158.698 46.0675 149.578 53.7098C136.052 65.0502 120.908 74.4046 104.781 81.3815C101.873 82.6438 98.7212 84.0035 97.1216 86.7721C94.2472 91.7593 98.1831 98.1497 103.086 101.028C108.64 104.292 115.252 105.043 121.346 107.109C127.441 109.172 133.626 113.372 134.734 119.791C136.276 128.695 127.6 135.846 119.664 140.051C103.769 148.473 86.4632 154.115 68.7347 156.661C62.3808 157.573 55.7718 158.153 50.1367 161.295C44.5005 164.437 40.1016 171.047 41.7751 177.311C43.4476 183.585 50.4383 186.959 56.8569 187.118C63.2734 187.282 69.5192 185.097 75.875 184.122C87.7731 182.29 101.839 186.072 106.87 197.107C110.178 204.359 108.736 213.179 104.805 220.152C100.876 227.13 94.755 232.557 88.4422 237.425C66.3839 254.431 40.2388 266.343 12.8026 269.797C-14.6297 273.252 -38.8184 270.634 -62.2392 255.941" fill="#00CCCC"/>
</svg>
